<svg width="30" height="30" viewBox="0 0 30 30" fill="none" xmlns="http://www.w3.org/2000/svg">
<path fill-rule="evenodd" clip-rule="evenodd" d="M20.5875 30V18.3825H24.4875L25.071 13.8555H20.586V10.965C20.586 9.654 20.9505 8.76 22.8315 8.76H25.2285V4.71C24.0676 4.58646 22.9009 4.52638 21.7335 4.53C18.2775 4.53 15.912 6.6405 15.912 10.515V13.8555H12V18.3825H15.9105V30H1.656C0.741 30 0 29.259 0 28.344V1.656C0 0.741 0.741 0 1.656 0H28.344C29.259 0 30 0.741 30 1.656V28.344C30 29.259 29.259 30 28.344 30H20.5875Z" fill="white"/>
</svg>
