<svg width="27" height="30" viewBox="0 0 27 30" fill="none" xmlns="http://www.w3.org/2000/svg">
<path d="M20.7333 4.7C19.594 3.39937 18.9662 1.72905 18.9667 0H13.8167V20.6667C13.7769 21.785 13.3048 22.8444 12.4996 23.6216C11.6944 24.3988 10.6191 24.8332 9.5 24.8333C7.13333 24.8333 5.16667 22.9 5.16667 20.5C5.16667 17.6333 7.93333 15.4833 10.7833 16.3667V11.1C5.03333 10.3333 0 14.8 0 20.5C0 26.05 4.6 30 9.48333 30C14.7167 30 18.9667 25.75 18.9667 20.5V10.0167C21.055 11.5164 23.5623 12.3211 26.1333 12.3167V7.16667C26.1333 7.16667 23 7.31667 20.7333 4.7Z" fill="white"/>
</svg>
